<svg xmlns="http://www.w3.org/2000/svg" viewBox="0 0 64 64">
  <rect width="64" height="64" rx="14" fill="#fff4f8"/>
  <g transform="translate(8,8)">
    <path d="M24 43C24 43 4 29 4 16C4 10 8.8 5 14.8 5C18.6 5 22 6.8 24 10.2C26 6.8 29.4 5 33.2 5C39.2 5 44 10 44 16C44 29 24 43 24 43Z" fill="#7e3ff2"/>
  </g>
  <g transform="translate(36,38)">
    <rect x="0.5" y="0.5" width="26" height="18" rx="2.5" fill="#f4d32f" stroke="#b77f24" stroke-width="1"/>
    <rect x="0.5" y="9.5" width="26" height="4.5" fill="#22408f"/>
    <rect x="0.5" y="14" width="26" height="4.5" fill="#d54141"/>
    <path d="M13.5 6.3c2.1 0 3.7 1.6 3.7 3.8 0 2.6-2.2 4.4-3.7 5.4-1.5-1-3.7-2.8-3.7-5.4 0-2.2 1.6-3.8 3.7-3.8z" fill="#d9ecff" stroke="#7b4f2a" stroke-width=".6"/>
    <path d="M10.9 10.4h5.2" stroke="#5aa9e6" stroke-width=".7"/>
    <path d="M11.4 11.7h4.2" stroke="#f3c04d" stroke-width=".7"/>
    <path d="M12 13h3" stroke="#b14a3d" stroke-width=".7"/>
  </g>
</svg>
